# xmcd CD database file
#
# Track frame offsets:
#	150
#	17610
#	34132
#	58765
#	85622
#	102590
#	121922
#	135205
#	155212
#	176702
#	190730
#	205425
#	219892
#	230232
#	243967
#	261040
#	280360
#	296675
#	311410
#
# Disc length: 4345 seconds
#
# Revision: 1
# Processed by: cddbd v1.5.1PL0 Copyright (c) Steve Scherf et al.
# Submitted via: CDex 1.51
#
DISCID=1410f713
DTITLE=Rune Gustafsson - Guldkorn
DYEAR=2002
DGENRE=Jazz
TTITLE0=Blowin' The Blues Away
TTITLE1=Thursday's Theme
TTITLE2=If You Live
TTITLE3=Tangerine
TTITLE4=Haitian Fight Song
TTITLE5=What Time Is It?
TTITLE6=Deep In A Dream
TTITLE7=Two Pieces
TTITLE8=Killer Joe
TTITLE9=Summertime
TTITLE10=Lullaby Of The Leaves
TTITLE11=Wichita Lineman
TTITLE12=The Fool On The Hill
TTITLE13=The Look Of Love
TTITLE14=Me On The See-Saw
TTITLE15=California Dreaming
TTITLE16=Waltz-A-Nova
TTITLE17=By The Time I Get To Phoenix
TTITLE18=Up, Up And Away
EXTD=YEAR: 2002
EXTT0=
EXTT1=
EXTT2=
EXTT3=
EXTT4=
EXTT5=
EXTT6=
EXTT7=
EXTT8=
EXTT9=
EXTT10=
EXTT11=
EXTT12=
EXTT13=
EXTT14=
EXTT15=
EXTT16=
EXTT17=
EXTT18=
PLAYORDER=
